<svg width="111" height="25" viewBox="0 0 111 25" fill="none" xmlns="http://www.w3.org/2000/svg">
<path d="M7.45898 14.1582C7.39258 15.0762 7.05273 15.7988 6.43945 16.3262C5.83008 16.8535 5.02539 17.1172 4.02539 17.1172C2.93164 17.1172 2.07031 16.75 1.44141 16.0156C0.816406 15.2773 0.503906 14.2656 0.503906 12.9805V12.459C0.503906 11.6387 0.648438 10.916 0.9375 10.291C1.22656 9.66602 1.63867 9.1875 2.17383 8.85547C2.71289 8.51953 3.33789 8.35156 4.04883 8.35156C5.0332 8.35156 5.82617 8.61523 6.42773 9.14258C7.0293 9.66992 7.37695 10.4102 7.4707 11.3633H5.71289C5.66992 10.8125 5.51562 10.4141 5.25 10.168C4.98828 9.91797 4.58789 9.79297 4.04883 9.79297C3.46289 9.79297 3.02344 10.0039 2.73047 10.4258C2.44141 10.8438 2.29297 11.4941 2.28516 12.377V13.0215C2.28516 13.9434 2.42383 14.6172 2.70117 15.043C2.98242 15.4688 3.42383 15.6816 4.02539 15.6816C4.56836 15.6816 4.97266 15.5586 5.23828 15.3125C5.50781 15.0625 5.66211 14.6777 5.70117 14.1582H7.45898ZM12.9102 8.46875L15.1016 14.6562L17.2812 8.46875H19.5898V17H17.8262V14.668L18.002 10.6426L15.6992 17H14.4922L12.1953 10.6484L12.3711 14.668V17H10.6133V8.46875H12.9102ZM30.1328 12.9277C30.1328 13.7676 29.9844 14.5039 29.6875 15.1367C29.3906 15.7695 28.9648 16.2578 28.4102 16.6016C27.8594 16.9453 27.2266 17.1172 26.5117 17.1172C25.8047 17.1172 25.1738 16.9473 24.6191 16.6074C24.0645 16.2676 23.6348 15.7832 23.3301 15.1543C23.0254 14.5215 22.8711 13.7949 22.8672 12.9746V12.5527C22.8672 11.7129 23.0176 10.9746 23.3184 10.3379C23.623 9.69727 24.0508 9.20703 24.6016 8.86719C25.1562 8.52344 25.7891 8.35156 26.5 8.35156C27.2109 8.35156 27.8418 8.52344 28.3926 8.86719C28.9473 9.20703 29.375 9.69727 29.6758 10.3379C29.9805 10.9746 30.1328 11.7109 30.1328 12.5469V12.9277ZM28.3516 12.541C28.3516 11.6465 28.1914 10.9668 27.8711 10.502C27.5508 10.0371 27.0938 9.80469 26.5 9.80469C25.9102 9.80469 25.4551 10.0352 25.1348 10.4961C24.8145 10.9531 24.6523 11.625 24.6484 12.5117V12.9277C24.6484 13.7988 24.8086 14.4746 25.1289 14.9551C25.4492 15.4355 25.9102 15.6758 26.5117 15.6758C27.1016 15.6758 27.5547 15.4453 27.8711 14.9844C28.1875 14.5195 28.3477 13.8438 28.3516 12.957V12.541ZM39.3281 9.89258H36.7148V17H34.957V9.89258H32.3789V8.46875H39.3281V9.89258ZM44.0938 13.9941V17H42.3359V8.46875H45.6641C46.3047 8.46875 46.8672 8.58594 47.3516 8.82031C47.8398 9.05469 48.2148 9.38867 48.4766 9.82227C48.7383 10.252 48.8691 10.7422 48.8691 11.293C48.8691 12.1289 48.582 12.7891 48.0078 13.2734C47.4375 13.7539 46.6465 13.9941 45.6348 13.9941H44.0938ZM44.0938 12.5703H45.6641C46.1289 12.5703 46.4824 12.4609 46.7246 12.2422C46.9707 12.0234 47.0938 11.7109 47.0938 11.3047C47.0938 10.8867 46.9707 10.5488 46.7246 10.291C46.4785 10.0332 46.1387 9.90039 45.7051 9.89258H44.0938V12.5703ZM57.2148 13.3027H53.8398V15.5879H57.8008V17H52.082V8.46875H57.7891V9.89258H53.8398V11.9258H57.2148V13.3027ZM67.3711 9.89258H64.7578V17H63V9.89258H60.4219V8.46875H67.3711V9.89258ZM72.2305 11.5449H73.6016C74.6055 11.5449 75.4004 11.7891 75.9863 12.2773C76.5762 12.7617 76.8711 13.416 76.8711 14.2402C76.8711 15.0684 76.5781 15.7344 75.9922 16.2383C75.4102 16.7383 74.6348 16.9922 73.666 17H70.4609V8.46875H72.2305V11.5449ZM72.2305 12.9629V15.5879H73.6309C74.0801 15.5879 74.4375 15.4648 74.7031 15.2188C74.9727 14.9727 75.1074 14.6426 75.1074 14.2285C75.1074 13.8418 74.9785 13.5371 74.7207 13.3145C74.4668 13.0879 74.1172 12.9707 73.6719 12.9629H72.2305Z" fill="white"/>
<path fill-rule="evenodd" clip-rule="evenodd" d="M99 4L97.6 5.4L103.2 11H91V13H103.2L97.6 18.6L99 20L107 12L99 4Z" fill="white"/>
</svg>
